Title                            : Salt
Year                             : 2010
Genre                            : Action | Crime | Mystery | Thriller
iMDB URL                         : http://www.imdb.com/title/tt0944835/

Complete name                    : Salt.2010.BRRIP.720P.H264-ZEKTORM.mp4
Format                           : MPEG-4
Format profile                   : Base Media
Codec ID                         : isom
File size                        : 1.76 GiB
Duration                         : 1h 44mn (Director's Cut)
Overall bit rate                 : 2417 Kbps

Video
ID                               : 1
Format                           : AVC
Format/Info                      : Advanced Video Codec
Format profile                   : High@L4.0
Format settings, CABAC           : Yes
Format settings, ReFrames        : 4 frames
Codec ID                         : avc1
Codec ID/Info                    : Advanced Video Coding
Duration                         : 1h 44mn
Bit rate mode                    : Variable
Bit rate                         : 2101 Kbps
Width                            : 1280 pixels
Height                           : 528 pixels
Display aspect ratio             : 2.424
Frame rate mode                  : Constant
Frame rate                       : 23.976 fps
Resolution                       : 24 bits
Colorimetry                      : 4:2:0
Scan type                        : Progressive
Bits/(Pixel*Frame)               : 0.130
Stream size                      : 1.53 GiB (87%)
Title                            : Video
Writing library                  : x264

Audio #1
ID                               : 2
Format                           : AAC
Format/Info                      : Advanced Audio Codec
Format version                   : Version 4
Format profile                   : LC
Format settings, SBR             : Yes
Format settings, PS              : No
Codec ID                         : 40
Duration                         : 1h 44mn
Bit rate mode                    : Variable
Bit rate                         : 228 Kbps
Maximum bit rate                 : 277 Kbps
Channel(s)                       : 6 channels
Channel positions                : Front: L C R, Rear: L R, LFE
Sampling rate                    : 48.0 KHz
Resolution                       : 16 bits
Stream size                      : 170 MiB (9%)
Title                            : English
Language                         : English

Audio #2
ID                               : 3
Format                           : AAC
Format/Info                      : Advanced Audio Codec
Format version                   : Version 4
Format profile                   : LC
Format settings, SBR             : Yes
Format settings, PS              : No
Codec ID                         : 40
Duration                         : 1h 44mn
Bit rate mode                    : Variable
Bit rate                         : 85.8 Kbps
Maximum bit rate                 : 112 Kbps
Channel(s)                       : 2 channels
Channel positions                : L R
Sampling rate                    : 48.0 KHz
Resolution                       : 16 bits
Stream size                      : 63.8 MiB (4%)
Language                         : English
